<svg xmlns="http://www.w3.org/2000/svg" width="824.4" height="109.61" viewBox="0 0 824.4 109.61">
  <title>Logo Conta Azul</title>
  <g>
    <path d="M1034.65,1000.41c2,0.78,4.08.69,6.11,1.11,10.74,2.25,19.78,7.1,25.82,16.62,3.56,5.62,5.21,11.87,6,18.4,0.07,0.6.08,1.11-.78,1.09-4.89-.14-9.8.36-14.68-0.28a9,9,0,0,1-7.27-5.2c-5.36-11.28-14.47-12.91-25.15-12.19-7,.47-13.1,3.16-17.72,8.64a30,30,0,0,0-6.32,14.29c-1.74,9.51-1.86,19,.92,28.35,2.36,7.92,6.74,14.43,14.78,17.57a30.34,30.34,0,0,0,21.3.35c7.54-2.55,11.45-8.34,13.48-15.64,0.44-1.58,1-2.13,2.75-2.09,5.77,0.13,11.54.06,17.31,0,0.91,0,1.52,0,1.37,1.26-1.07,8.95-3.95,17.12-10.13,23.89a38.19,38.19,0,0,1-18.47,10.95,62.76,62.76,0,0,1-33.63.3c-15-4.05-24.69-14-29.06-28.69a80.57,80.57,0,0,1,.7-49.78c5.39-15.83,17.09-24.73,33.35-27.9,2-.38,4-0.27,5.92-1.1h13.4Z" transform="translate(-806.37 -1000.41)" style="fill: #fff"/>
    <path d="M1630.77,1107.65c-5.88-.34-11.76-0.07-17.65-0.14-3.55,0-3.55,0-3.55-3.47q0-49.28,0-98.56c0-1.73.47-2.21,2.15-2.11,2.35,0.14,4.71,0,7.06,0,6.8,0,9.69,2,12,8.18v96.06Z" transform="translate(-806.37 -1000.41)" style="fill: #fff"/>
    <path d="M969.07,1000.79c-8.1,5.37-11.36,13.72-14.88,21.92-3,7-4.24,14.49-6.7,21.62-3.06,8.86-6.49,17.64-11.31,25.63a85.28,85.28,0,0,1-31.75,31,71.86,71.86,0,0,1-42.28,8.77c-10.32-.9-20-3.44-28.61-9.37-10.76-7.41-17.31-17.9-21.49-30-4.82-14-6.11-28.41-5.56-43.08a8,8,0,0,1,.14-1.1,0.82,0.82,0,0,1,.17-0.27c5.39,7.68,13.23,12.35,21.42,16.08,11.09,5,19.5,12.77,26.15,22.71a4.28,4.28,0,0,0,1.33,1.69c1.3-2.76,2.59-5.48,4.12-8.08,7.74-13.13,18.65-23.08,31.41-31.13,17.06-10.77,35.77-17.47,55.26-22.22,6.86-1.67,13.8-3,20.79-4C967.79,1000.84,968.33,1000.84,969.07,1000.79ZM935.48,1026a80.56,80.56,0,0,0-12.32,4.61c-27.81,12.27-51,29.91-65.73,57.2-0.67,1.24-1,1-1.75.08a89,89,0,0,0-6.73-7.69c-7.5-7.76-15.74-14.54-25.55-19.23a8.83,8.83,0,0,0-3.61-1.32c0-.25-0.1-0.31-0.31-0.29a0.36,0.36,0,0,0-.14.11l0.46,0.16a3.66,3.66,0,0,0,1.49,1.58c3.85,3.51,7.83,6.88,11.55,10.53,9.09,8.92,18.61,17.51,23.92,29.62a8.93,8.93,0,0,0,.56-0.72A251.78,251.78,0,0,1,882.78,1067c11.09-12.39,23.25-23.56,37.35-32.5a163.54,163.54,0,0,1,15.51-8.33l0.58-.24A0.47,0.47,0,0,0,935.48,1026Z" transform="translate(-806.37 -1000.41)" style="fill: #fff"/>
    <path d="M1436.35,1107.5c-3,0-6-.1-8.93,0a2.4,2.4,0,0,1-2.88-2c-1.8-5.92-3.82-11.78-5.62-17.7-0.45-1.47-1.13-1.84-2.61-1.84q-18.33.1-36.67,0a2.09,2.09,0,0,0-2.44,1.76c-1.79,6.06-3.73,12.07-5.54,18.12a1.9,1.9,0,0,1-2.16,1.67c-6.45-.08-12.91-0.07-19.36,0-1.37,0-1.7-.23-1.2-1.63q17-47.6,33.88-95.21c1.74-4.88,5.12-7.22,10.32-7.26s10.18,0,15.26-.05a2.08,2.08,0,0,1,2.36,1.66q15,41.49,30.11,82.95l6.34,17.46c0.74,2,.74,2.05-1.36,2.06h-9.49Zm-38.25-82.88c-0.3.6-.4,0.75-0.45,0.92q-6.86,20.81-13.73,41.61c-0.46,1.4.2,1.34,1.19,1.34,8.5,0,17,0,25.49,0,1.65,0,1.84-.41,1.34-1.9-3-9-5.94-18-8.9-27Z" transform="translate(-806.37 -1000.41)" style="fill: #fff"/>
    <path d="M1342.2,1063c0,5.52.18,11.05,0,16.57-0.37,9.36-3.94,17.25-11.71,22.81a34,34,0,0,1-16.82,5.93c-5.3.51-10.62,1-16,.5a29.5,29.5,0,0,1-16.59-6.82c-4.1-3.49-5.87-8.24-6.48-13.41a35,35,0,0,1,.67-13.31,17.54,17.54,0,0,1,7.59-10.65,45.47,45.47,0,0,1,18.79-6.53c4.71-.65,9.48-1.12,14.06-2.55a12.33,12.33,0,0,0,4.74-2.48c3-2.75,2.55-7.55-1.22-9.13a23.89,23.89,0,0,0-18.3-.57,6,6,0,0,0-3.35,2.83c-0.68,1.39-1.68,1.52-3,1.51-5.52,0-11-.07-16.57,0-1.43,0-1.62-.43-1.35-1.69,2.06-9.66,8.14-15.63,17.25-18.75,7.2-2.47,14.66-2.24,22.1-1.68a43.21,43.21,0,0,1,12.48,2.74c9.15,3.57,13.8,10.33,13.81,20.14q0,7.26,0,14.52h-0.08Zm-19.51,10.49c0-1.95-.06-3.44,0-4.92,0.06-1.18-.12-1.56-1.39-1a61.83,61.83,0,0,1-12,3.68c-3.43.76-6.95,1.27-10.11,3a8.28,8.28,0,0,0-3.45,2.73c-3.39,5.45-2.43,15.15,7.44,15.68,8.61,0.46,16.37-3.12,18.81-12.22A31.66,31.66,0,0,0,1322.69,1073.46Z" transform="translate(-806.37 -1000.41)" style="fill: #fff"/>
    <path d="M1152.56,1066.36c-0.14,7.34-.87,13.82-3.2,20.08-4.69,12.6-13.65,19.87-26.91,21.95a43.17,43.17,0,0,1-23-2.59c-9-3.58-15.14-10-18-19.29-4-13-4.42-26.17.11-39.12,4.7-13.4,14.53-20.55,28.58-22a46.37,46.37,0,0,1,17,1.18c11.69,3.17,18.68,11.14,22.59,22.23a48.94,48.94,0,0,1,2.12,8.46A70.83,70.83,0,0,1,1152.56,1066.36Zm-53.57-.51c0.14,6,.56,11.89,3,17.45a14.68,14.68,0,0,0,15.13,8.45c6.81-.88,10.61-5.31,12.76-11.29,2.25-6.28,2.36-12.87,1.72-19.47a23.84,23.84,0,0,0-4.76-12.67c-7.05-9.15-20.86-5.39-24.5,1.9A33.11,33.11,0,0,0,1099,1065.85Z" transform="translate(-806.37 -1000.41)" style="fill: #fff"/>
    <path d="M1602.32,1055.91c-0.12,6.73.23,14.92-.21,23.11a40,40,0,0,1-3,13.91,19.77,19.77,0,0,1-8.88,9.93c-16.09,8.66-32,8.08-47.52-1.28-5.72-3.44-8.09-9.18-9.44-15.41a53.81,53.81,0,0,1-1.13-11.46c0-15.27,0-30.53,0-45.8,0-1.49.3-2,1.91-2,5.83,0.1,11.67.09,17.5,0,1.45,0,1.87.35,1.87,1.84-0.06,16.26,0,32.52,0,48.77a21.56,21.56,0,0,0,.54,5.54c1.47,5.61,7.07,9.38,13.7,9.25,7-.13,12.38-4.26,13.54-10.45a27.54,27.54,0,0,0,.28-5c0-13,0-26.06,0-39.09,0-6.52,4.17-10.69,10.68-10.82,0.93,0,1.86,0,2.79,0,2.4,0.1,5.58-1,7,.4s0.44,4.71.46,7.16C1602.36,1041.17,1602.32,1047.81,1602.32,1055.91Z" transform="translate(-806.37 -1000.41)" style="fill: #fff"/>
    <path d="M1180.16,1080.1c0,8.44-.06,16.87,0,25.31,0,1.78-.56,2.15-2.2,2.13-5.83-.09-11.66-0.06-17.49,0-1.19,0-1.59-.3-1.59-1.56,0.06-16.38,0-32.75.11-49.13a39.74,39.74,0,0,1,2.22-12.77,22,22,0,0,1,10.42-12.57c13.89-7.68,27.94-8.33,42.38-1.54,7.79,3.66,12.08,9.77,13.83,18a60.28,60.28,0,0,1,1.18,12.75c0,14.95,0,29.9,0,44.85,0,1.7-.5,2.09-2.09,2-2.79-.13-5.58,0-8.37-0.05-6.6-.19-10.44-4.12-10.46-10.73,0-12.65,0-25.31,0-38a36.34,36.34,0,0,0-.17-5.57c-1.14-7.25-8.18-12.08-15.79-11-8.09,1.19-12,5.63-12,13.84C1180.12,1064.1,1180.16,1072.1,1180.16,1080.1Z" transform="translate(-806.37 -1000.41)" style="fill: #fff"/>
    <path d="M1499,1043.63c-10.52,0-20.63,0-30.74,0a9.78,9.78,0,0,1-9.57-7.15c-0.78-2.86-.26-5.8-0.36-8.71a0.7,0.7,0,0,1,.81-0.78h1.3q30.9,0,61.8,0c1.64,0,2.1.39,2.06,2.05-0.12,4.53-.08,9.06,0,13.59a3.89,3.89,0,0,1-1.2,2.94q-20,21.33-39.89,42.72a3.42,3.42,0,0,0-1.13,1.45,3.54,3.54,0,0,0,2,.19c13.15,0,26.31.06,39.46,0,2,0,2.34.57,2.29,2.38-0.13,4.59-.09,9.18,0,13.77,0,1.28-.41,1.55-1.59,1.55q-33.41,0-66.83,0c-1.19,0-1.61-.29-1.59-1.56,0.08-4.34.06-8.69,0-13a3.55,3.55,0,0,1,1-2.63q20.45-22.54,40.84-45.13C1498,1044.78,1498.37,1044.35,1499,1043.63Z" transform="translate(-806.37 -1000.41)" style="fill: #fff"/>
    <path d="M1237.93,1049.52c0-14.77,0-29.54,0-44.3,0-1.44.33-1.92,1.83-1.85,2.85,0.13,5.71,0,8.56,0a10.26,10.26,0,0,1,10.5,10.45c0,3.91.08,7.82,0,11.73,0,1.44.42,1.77,1.78,1.72,3-.1,6,0,8.93-0.06,1.24,0,1.82.24,1.71,1.62-0.14,1.73.14,3.48-.25,5.19a9.85,9.85,0,0,1-10.06,7.7c-1.74,0-2.12.5-2.11,2.17,0.07,13.9,0,27.8,0,41.7,0,4.42,1.58,6,6.07,6.06,1.67,0,3.35.05,5,0a1,1,0,0,1,1.28,1.28q-0.05,6.7,0,13.4a1,1,0,0,1-1.19,1.22c-7.26.17-14.53,0.34-21.74-.63-5.63-.76-8.93-4.18-9.91-9.81a30.93,30.93,0,0,1-.4-5.37Q1237.95,1070.65,1237.93,1049.52Z" transform="translate(-806.37 -1000.41)" style="fill: #fff"/>
    <path d="M935.48,1026a0.47,0.47,0,0,1,.74-0.06l-0.58.24Z" transform="translate(-806.37 -1000.41)" style="fill: #fff"/>
    <path d="M819.81,1059.61l-0.46-.16a0.36,0.36,0,0,1,.14-0.11c0.2,0,.35,0,0.31.29Z" transform="translate(-806.37 -1000.41)" style="fill: #fff"/>
  </g>
</svg>
